<mxfile host="app.diagrams.net" agent="Mozilla/5.0 (Macintosh; Intel Mac OS X 10_15_7) AppleWebKit/537.36 (KHTML, like Gecko) Chrome/134.0.0.0 Safari/537.36 Edg/134.0.0.0" version="26.1.3">
  <diagram name="Page-1" id="Ez_qfo2eqXGB0qpN3mE_">
    <mxGraphModel dx="1018" dy="687" grid="1" gridSize="10" guides="1" tooltips="1" connect="1" arrows="1" fold="1" page="1" pageScale="1" pageWidth="850" pageHeight="1100" math="0" shadow="0">
      <root>
        <mxCell id="0" />
        <mxCell id="1" parent="0" />
        <mxCell id="aCdL_IJ5SIVLyo7josQg-1" value="" style="rounded=0;whiteSpace=wrap;html=1;" vertex="1" parent="1">
          <mxGeometry x="40" y="170" width="600" height="410" as="geometry" />
        </mxCell>
        <mxCell id="aCdL_IJ5SIVLyo7josQg-5" style="edgeStyle=orthogonalEdgeStyle;rounded=0;orthogonalLoop=1;jettySize=auto;html=1;exitX=0.5;exitY=1;exitDx=0;exitDy=0;" edge="1" parent="1" source="aCdL_IJ5SIVLyo7josQg-2" target="aCdL_IJ5SIVLyo7josQg-3">
          <mxGeometry relative="1" as="geometry" />
        </mxCell>
        <mxCell id="aCdL_IJ5SIVLyo7josQg-2" value="Internet" style="image;aspect=fixed;perimeter=ellipsePerimeter;html=1;align=center;shadow=0;dashed=0;spacingTop=3;image=img/lib/active_directory/internet_cloud.svg;" vertex="1" parent="1">
          <mxGeometry x="284.44" y="20" width="111.11" height="70" as="geometry" />
        </mxCell>
        <mxCell id="aCdL_IJ5SIVLyo7josQg-12" style="edgeStyle=orthogonalEdgeStyle;rounded=0;orthogonalLoop=1;jettySize=auto;html=1;exitX=0.5;exitY=1;exitDx=0;exitDy=0;" edge="1" parent="1" source="aCdL_IJ5SIVLyo7josQg-3" target="aCdL_IJ5SIVLyo7josQg-7">
          <mxGeometry relative="1" as="geometry" />
        </mxCell>
        <mxCell id="aCdL_IJ5SIVLyo7josQg-13" style="edgeStyle=orthogonalEdgeStyle;rounded=0;orthogonalLoop=1;jettySize=auto;html=1;entryX=0.5;entryY=0;entryDx=0;entryDy=0;" edge="1" parent="1" source="aCdL_IJ5SIVLyo7josQg-3" target="aCdL_IJ5SIVLyo7josQg-8">
          <mxGeometry relative="1" as="geometry" />
        </mxCell>
        <mxCell id="aCdL_IJ5SIVLyo7josQg-14" style="edgeStyle=orthogonalEdgeStyle;rounded=0;orthogonalLoop=1;jettySize=auto;html=1;exitX=0.5;exitY=1;exitDx=0;exitDy=0;" edge="1" parent="1" source="aCdL_IJ5SIVLyo7josQg-3" target="aCdL_IJ5SIVLyo7josQg-10">
          <mxGeometry relative="1" as="geometry" />
        </mxCell>
        <mxCell id="aCdL_IJ5SIVLyo7josQg-3" value="" style="image;html=1;image=img/lib/clip_art/networking/Wireless_Router_N_128x128.png" vertex="1" parent="1">
          <mxGeometry x="300" y="120" width="80" height="70" as="geometry" />
        </mxCell>
        <mxCell id="aCdL_IJ5SIVLyo7josQg-7" value="Turing&lt;div&gt;(Raspberry Pi 4)&lt;/div&gt;" style="rounded=0;whiteSpace=wrap;html=1;align=center;verticalAlign=top;" vertex="1" parent="1">
          <mxGeometry x="100" y="240" width="120" height="220" as="geometry" />
        </mxCell>
        <mxCell id="aCdL_IJ5SIVLyo7josQg-6" value="" style="shape=image;html=1;verticalAlign=top;verticalLabelPosition=bottom;labelBackgroundColor=#ffffff;imageAspect=0;aspect=fixed;image=https://cdn1.iconfinder.com/data/icons/fruit-136/64/Fruit_iconfree_Filled_Outline_raspberry-healthy-organic-food-fruit_icon-128.png" vertex="1" parent="1">
          <mxGeometry x="80" y="220" width="48" height="48" as="geometry" />
        </mxCell>
        <mxCell id="aCdL_IJ5SIVLyo7josQg-27" style="edgeStyle=orthogonalEdgeStyle;rounded=0;orthogonalLoop=1;jettySize=auto;html=1;exitX=0.5;exitY=1;exitDx=0;exitDy=0;" edge="1" parent="1" source="aCdL_IJ5SIVLyo7josQg-8">
          <mxGeometry relative="1" as="geometry">
            <mxPoint x="344" y="500" as="targetPoint" />
          </mxGeometry>
        </mxCell>
        <mxCell id="aCdL_IJ5SIVLyo7josQg-8" value="Lovelace&lt;div&gt;(Raspberry Pi 4)&lt;/div&gt;" style="rounded=0;whiteSpace=wrap;html=1;verticalAlign=top;" vertex="1" parent="1">
          <mxGeometry x="284.44" y="240" width="120" height="220" as="geometry" />
        </mxCell>
        <mxCell id="aCdL_IJ5SIVLyo7josQg-9" value="" style="shape=image;html=1;verticalAlign=top;verticalLabelPosition=bottom;labelBackgroundColor=#ffffff;imageAspect=0;aspect=fixed;image=https://cdn1.iconfinder.com/data/icons/fruit-136/64/Fruit_iconfree_Filled_Outline_raspberry-healthy-organic-food-fruit_icon-128.png" vertex="1" parent="1">
          <mxGeometry x="270" y="220" width="48" height="48" as="geometry" />
        </mxCell>
        <mxCell id="aCdL_IJ5SIVLyo7josQg-23" style="edgeStyle=orthogonalEdgeStyle;rounded=0;orthogonalLoop=1;jettySize=auto;html=1;exitX=0.5;exitY=1;exitDx=0;exitDy=0;" edge="1" parent="1" source="aCdL_IJ5SIVLyo7josQg-10" target="aCdL_IJ5SIVLyo7josQg-18">
          <mxGeometry relative="1" as="geometry" />
        </mxCell>
        <mxCell id="aCdL_IJ5SIVLyo7josQg-10" value="Hopper&lt;div&gt;(Raspberry Pi 3)&lt;/div&gt;" style="rounded=0;whiteSpace=wrap;html=1;verticalAlign=top;" vertex="1" parent="1">
          <mxGeometry x="480" y="240" width="120" height="220" as="geometry" />
        </mxCell>
        <mxCell id="aCdL_IJ5SIVLyo7josQg-11" value="" style="shape=image;html=1;verticalAlign=top;verticalLabelPosition=bottom;labelBackgroundColor=#ffffff;imageAspect=0;aspect=fixed;image=https://cdn1.iconfinder.com/data/icons/fruit-136/64/Fruit_iconfree_Filled_Outline_raspberry-healthy-organic-food-fruit_icon-128.png" vertex="1" parent="1">
          <mxGeometry x="460" y="220" width="48" height="48" as="geometry" />
        </mxCell>
        <mxCell id="aCdL_IJ5SIVLyo7josQg-18" value="Cold Storage&lt;div&gt;(Backups)&lt;/div&gt;" style="sketch=0;pointerEvents=1;shadow=0;dashed=0;html=1;strokeColor=none;fillColor=#505050;labelPosition=center;verticalLabelPosition=bottom;verticalAlign=top;outlineConnect=0;align=center;shape=mxgraph.office.devices.hard_disk;" vertex="1" parent="1">
          <mxGeometry x="520" y="480.75" width="40" height="54" as="geometry" />
        </mxCell>
        <mxCell id="aCdL_IJ5SIVLyo7josQg-19" value="Home Assistant" style="shape=image;verticalLabelPosition=bottom;labelBackgroundColor=default;verticalAlign=top;aspect=fixed;imageAspect=0;image=data:image/png,iVBORw0KGgoAAAANSUhEUgAAAeAAAAHgCAYAAAB91L6VAAAACXBIWXMAABYlAAAWJQFJUiTwAAAAAXNSR0IArs4c6QAAAARnQU1BAACxjwv8YQUAACBHSURBVHgB7d1PjF1XneDxc98rx+5Yrk5ZZNpRlRQ3GSWxpR6CRkrYtSMnLbEhf2YLxLNlMN2sQNASsGgGVk0TYJY4YraThNVoCCiZHYlGItNIcUDTyEj2pKYzwqHcseK4ql6/U+Vy7HL9ee/de9+755zPRyrsComVuqm63/c799z7QgAAAAAAAAAAAAAAAAAAAAAAAAAAAACgLVUAOuuely7fc9eRcGrp4Nwj//fa4P5BGDxSVeGeMKiO3/Y3VoMLw792YRDCe9Vg8L9DWH/tg38Jb773zMJ7AegkAYaOidE9NN/762FQTw0/PRXqea0arP10sBpeXv70woUAdIYAQ0cce+XyqVD1vxHqR3c3r4X1tReW/2rhXABmToBhxqYQ3m2Gy9Xr698SYpgtAYYZOfbfLx8PB/o/DlML7+2G14tfrq6vfdnSNMxGLwBTd98rl/+mOtD7VZhRfKPhq++nBwf6v/qz4b9LAKbOBAxTdGOD1d+HQXUmdMu5D/prX37vcbumYVoEGKYkLjkP5novVVX1SOik4bXh6+uPW5KG6RBgmILN6729V4c/csdDp4kwTIsAQ8vSie8WEYZpEGBoUXrx3SLC0DYBhpakG98tIgxtEmBoQfrx3SLC0BYBhoblE98tIgxtEGBoUH7x3SLC0DQBhobkG98tIgxNEmBoQP7x3SLC0BQBhprKie8WEYYmCDDUUF58t4gw1CXAMKFy47tFhKEOAYYJiO8WEYZJCTCMSXy3E2GYhADDGMR3NyIM4xJgGJH47keEYRwCDCMQ31GJMIxKgGEf4jsuEYZRCDDsQXwnJcKwHwGGXYhvXSIMexFg2IH4NkWEYTcCDNuIb9NEGHYiwHAL8W2LCMN2Agw3iG/bRBhuJcAQxHd6RBi2CDDFE99pE2GIBJiiie+siDAIMMUS31kTYcomwBRJfLtChCmXAFMc8e0aEaZMAkxRxLerRJjyCDDFEN+uE2HKIsAUQXxTIcKUQ4DJnvimRoQpgwCTNfFNlQiTPwEmW+KbOhEmbwJMlsQ3FyJMvgSY7IhvbkSYPAkwWRHfXIkw+RFgsiG+uRNh8iLAZEF8SyHC5EOASZ74lkaEyYMAkzTxLZUIkz4BJlniWzoRJm0CTJLEl00iTLoEmOSIL7cTYdIkwCRFfNmZCJMeASYZ4sveRJi0CDBJEF9GI8KkQ4DpPPFlPCJMGgSYThNfJiPCdJ8A01niSz0iTLcJMJ0kvjRDhOkuAaZzxJdmiTDdJMB0ivjSDhGmewSYzhBf2iXCdIsA0wniy3SIMN0hwMyc+DJdIkw3CDAzJb7MhggzewLMzIgvsyXCzJYAMxPiSzeIMLMjwEyd+NItIsxsCDBTJb50kwgzfQLM1Igv3SbCTJcAMxXiSxpEmOkRYFonvqRFhJkOAaZV4kuaRJj2CTCtEV/SJsK0S4BphfiSBxGmPQJM48SXvIgw7RBgGiW+5EmEaZ4A0xjxJW8iTLMEmEaIL2UQYZojwNQmvpRFhGmGAFOL+FImEaY+AWZi4kvZRJh6BJiJiC9EIszkBJixiS/cSoSZjAAzFvGFnYgw4xNgRia+sBcRZjwCzEjEF0YhwoxOgNmX+MI4RJjRCDB7El+YhAizPwFmV+ILdYgwexNgdiS+0AQRZncCzB3EF5okwuxMgLmN+EIbRJg7CTA3iS+0SYS5nQCzQXxhGkSYjwgw4gtTJcJsEuDCiS/MgggjwEUTX5glES6dABdKfKELRLhkAlwg8YUuEeFSCXBhxBe6SIRLJMAFEV/oMhEujQAXQnwhBSJcEgEugPhCSkS4FAKcOfGFFIlwCQQ4Y+ILKRPh3AlwpsQXciDCORPgDIkv5ESEcyXAmRFfyJEI50iAMyK+kDMRzo0AZ0J8oQQinBMBzoD4QklEOBcCnDjxLcORuSos3hXC4qEqzPc3/9rSwc0f35XVQVhZC+HStcHG5+evhnBldRDImQjnQIATJr55irF9YqEKJw73wom7q42P+bnxflRjlM9f3fx4fWU9vP3+4GagyYUIp06AEyW+eXl0vhp+9MJjNz7a8NYwxm8MY/zCO2tinA0RTpkAJ0h88xAn3Wc/Npx2j/Zbi+5uYoxfeGc1/PzywHJ18kQ4VQKcGPFNXwzvc8d64cyx/thLy027eG1zKn7+oqk4bSKcIgFOiPimrUvh3S5eMz63vBZeWF43ESdLhFMjwIkQ37SdPtoL3/34XOfCu12ciJ+/uBpeenc9kCIRTokAJ0B807V4sArfeWBu6td463rx3TXL0skS4VQIcMeJb7pSmXp3YxpOmQinQIA7THzT9cWlufClpX7IwfeHEf7BcBomNSLcdQLcUeKbprjR6rsf72/cWpSTV/6wFr76uzUbtJIjwl0mwB0kvmmK13t/+NCBcPLuPH+s4r3D/+k3110XTo4Id5UAd4z4pinG9ycnD9x8PnOu4nXhz70lwukR4S4S4A4R3zTFZeef/kX+8d0SI/zUr69bjk6OCHdNWvdGZEx801XC5HurpRvTPqmpNs4xG+caOkGAO0B80/W143PZXvPdS/ya4/3NpKYS4Q4R4BkT33TFW43iYyVL9ey9/fD5gr/+dFUi3BGuAc+Q+KYrbrp69ZN3BUL4zD9+GN6+6npwelwTnjUT8IyIb9pcA/3Ijx46sLERjdRUJuEZE+AZEN+0xaXnkjZd7Scei7OLTiVpqkR4hpxFpkx802bpeXeWolNmOXoWvGydIvFNn52/u/v6cccmXZVJeAYEeErEN33P3NtL7m0Fpykem0fnLaqlqxLhKXM2mQLxzcPZJRPefhyj1FUiPEUC3DLxzcMTR3s2Xo3AFJyDSoSnRIBbJL75eM4DJ0ZmCs5BJcJTIMAtEd98xJ3Prv2OLh6rRasFGahEuGXOKi0Q37ycuc/0O65n73VqyUMlwi3yU9Iw8c3P6QU/JuOKz4kmF5UIt8SZpUHim58Th22+mkRcgrYZKyeVCLdAgBsivnl67IiITMp189xUItwwPyENEN98nT7qR2RSjwpwhioRbpCfkJrEN2+muMmduLvyLklZqkS4Ic4uNYhv3kxw9cwP47vofSsyVYlwA5xhJiS++Tt5t+mtrpOHHcN8VSJckwBPQHzLsHhIPOp6+LBTTN4qEa7BT8eYxLccnuZUnyXoElQiPCEBHoP4luWIZ0nU5h7qUlQiPAEBHpH4lkc86pu3C7oglQiPSYBHIL5lsgRdn1WE0lQiPAYB3of4wuRMwCWqRHhEArwH8QWYRCXCIxDgXYgvQB2VCO9DgHcgvgBNqER4DwK8jfiy5dK1QaAexxAR3p0A30J8udXKWqCmlVUBJqpEeAcCfIP4sp3prb4rXsRwUyXC2whwEF92JsD1vXXVMeRWlQjfovgAiy+7ufSBeNTlGHKnSoRvKDrA4steXr8iHnW9fXU9wJ0qEQ4FB1h82Y8l6PpeX3EM2U1VfISLDLD4Moq4g/f1FRPcpN5w7NhXVXSEiwuw+DKON0xwE/PihdFUxUa4qACLL+MSkcmZgBldVWSEiwmw+DKJGJErHiYxtnj93PVfxlMVF+EiAiy+1HFu2SQ3LisHTKYqKsLZB1h8qUtMxvf8RY/AYlJVMRHOOsDiSxPiMrQIjy4eL7dwUU9VRISzDbD40iQT3ehefNeLFZpQZR/hLAMsvjTNFDyaOPm++K4XKzSlyjrC2QVYfGmLKXh/jhHNq7KNcFYBFl/aZArem+mX9lRZRjibAIsv02DC291n37oeoD1VdhHOIsDiy7TEKfiFZRHe7tzwmNj5TPuqrCKcfIDFl2mLU7DYfCQeCysDTE+VTYSTDrD4MgvxXZK+8k+rgU1f+M11j+tkyqosIpxsgMWXWYpL0d/+vanv+Yur4fxV8WUWquQjnGSAxZcuOPfOatG7fuPXbumZ2aqSjnByARZfuiROwSVOgPFr/jsrAHRClWyEkwqw+NI18XpwvAZa0qas+LW67ku3VElGuAqJEF+6bPFgFf7ryQMbv+Ysxjfe72sXON00uBCurz++/OmFCyEBSZwtxJcU5B5h8SUN6US480vQ4ksqYpie+vX1LB9XGXd9f+bX4ksKqmSWozv9Ul18SdXZpbnhRz/kID7l6tsX3PdMaro/CXc2wOJL6p69tx++fn8/HJlLc0k6brKKO529wQLp6naEO3lmEF9yEa8Hf+eBufDYfFp3/MUl5/i0L0vOpK+7Ee5cgMWXHMVpOC5Jd32DVpx6v39xzRtOkJluRrhTZwPxJWcxvmfu64fnjnXv2nAM77nl9Y3rve7vJU/di3BnAiy+lCKG+NVP3hW65N//rw+FlwJ0K8KduDAlvpSki9dVxZcyVJ26RWnmARZfAKan6kyEZxpg8QVg+qpORHhmARZfAGanmnmEZxJg8QVg9qqZRnjqARZfALqjmlmEpxpg8QWge6qZRHhqARZfALqrmnqEpxJg8QWg+6qpRrj1AIsvAOmophbhVgMsvgCkp5pKhFsLsPgCkK6q9Qi3EmDxBSB9VasRbjzA4gtAPqrWItxogMUXgPxUrUS4sQDf89LlewZzvZfEF4D8VMcHB3ov3fPq5XtCQxoL8J8c6f+4qqpHAgBkqArVI4fW+n8fGtJIgI/94o/fGITwdACAvJ2JzQsNqB3gf/M/Lj8dBtU3AwCUYNi8Y69cPhVqqhXgeEG61+81No4DQAoGVf+lupuy6k3AB/o/tukKgNJUIdyz2cDJTRzgG2vgpwIAlOnUn71y+W/ChCYK8MbY7bovAKWr+t+YdCl6ogAv/MncSwEACldnKXrsAB/72eUzl1cH7vcFgE0TLUWPFeCNMbvXa+T+JwDIxnApetynZI03Afd737TrGQBuF5eiD632xpqCRw7w5vRbPRcAgDtV1VgbskafgDemXwBgV2NsyBopwKZfABjJqVEfUznaBFzzaR8AUIyqP9Jm5X0DfKPkpwIAMIqRpuB9A/xvDx9w2xEAjGOEKXjPAMdrv//n6vqpAACMY98peO8J2M5nAJhM1d9z8/KuAbbzGQBqObPX07F2DXB119xfBwBgYns9HWvXAA8G608HAGBig6radZjdMcDxHY888xkA6onPiN5tM9bOE3Cv79ovADRhl1uS7gjwjQdJnwoAQBNO7bQZ684JuC++ANCknTZj3RHgqtez+xkAmlRVf7n9L90W4Lj8PAjVIwEAaNKp7e8VfFuAq7meW48AoA1zvTO3fXrrJ4OqeioAMFVH5qqweFcIi4eqMN/f/GtLB6uNX1dWB2FlLYRL1wYbn5+/GsKV1UEgQduWoW8G2O5ngPbF2D6xUIUTh3vhxN3Vxsf8XDXWnxGjfP7q5sfrK+vh7fcHNwNNp23shn7v8YX34icfTcB2PwO04tH5avjRC4/d+KgrBvux+fgRwpljmyPzW8MYvzGM8QvvrIlxhx263o+Xes/F398McFX1nvafDKAZcdJ99mPDafdov5Ho7ufkcJI+eXd/I8gxxi+8sxp+fnlgubpreiEuQ5+Lv70Z4EEVPhEAqCWG97ljvY0Qjru03JQY4+8+cCBcvLY5FT9/0VTcFcP/CnEC/o/x9xvfHYs/u/zIWq//qwBMxW8/dTB0yYO/vBaopwvh3U28ZnxueS28sLxuIu6C62t/vvzphQsb6yJrIbj3F2BCp4/2wquPHAhfWprrXHyj+O8U/91++hcHwjP3tr8czj76/VPxlxv/JXqnAgBjWTxYhZ+cPBD+y4MHOhne7eKtTXFp+jsPzG38uzMjm9eBNwNc9Vz/BRhHnHrjRDmNDVZNe/be/sYLB9PwbGw9cbJ36ycA7O+Lw+XcVKbe3WxNw19c6gemqwqDR+L9wL24ASsAsK+40epHD84Nr6fmE614bfiHw6/pSMIvJlJ04Ho43lvvheMBgD1tXe+N9/Xm5smjm0vSrgtPTz/0H+kNBj0TMMAetuIb76/NVfzaRHiKqsHx3nAx+ngAYEdxaTaGaamAMC3deKFhOXoKqur+3vB/7w8A7KiU+G7ZijDtGgwGC70qDO4JANzha8fnsl523k38muO9wrSnqqpP9AYhLAQAbhNvNdp6p6ESxXuFP1/w1z8NlqABtokbkXK61WhSfztcAXi4wBWAKTnuMSgA27gG+pEfPWRTVlsEGOAWcem5pE1X+4nH4uyiVLTBUQW4wdLzzs7cZym6DQIMcIOdv7v7+nHHpmkCDDAU3xkoxXc2mpZ4bB6dNwU3yXcbwNDZJRPefhyjZgkwULwnjvZsvBqBKbhZAgwU7zkPnBiZKbg5AgwULe58du13dPFYecekZviuA4p25j7T77ievVc6muAoAkU7veA0OK74nGjq850HFOvEYZuvJhGXoG3Gqk+AgWI9dkREJuW6eX2OIFCs00edAif1qADX5ggCxTLFTe7E3ZV3SarJdx9QJBNcPfPD+C7eFajBdyBQpJPe3ae2k4cdwzoEGCjS4iHxqOvhwxJSh6MHFMnTnOqzBF2PAANFOuJZErW5h7oeAQaKJB71zdsFXYsAA0WyBF2fVYR6BBiAiZiA6xFgAJgBAQaAGRBgoEhXVgcBZkmAgSKtrAVqunTNi5g6BBgokgDXt2IVoRYBBopkeqvvihcxtQgwUCQBru+tq45hHQIMFOn8++uBei59IMB1CDBQpPNXAzW9fdWLmDoEGCiSJej6Xl9xDOsQYKBIcQfv6ysmuEm94djVJsBAsd4wwU3MBqz6BBgolgl4cr/4g3uQ6hJgoFjP3OsUOIl4/dz13/p89wFF+s8PzIX/cK83tJ2ElYNmCDBQHPGt5/mLlp+bIMBAUcS3nrj72S1czRBgoBjiW9+L71p+booAA0UQ3/ri5Pviu5afmyLAQPbEtxmu/TZLgIGsiW8zTL/NE2AgW+LbnC/85nqgWQIMZEl8mxMn3/MePdk4AQayI77NiUvPrv22Q4CBrIhvs776T6vu+22JAAPZEN9mPX9x1WMnWyTAQBbEt1k//8OapeeWzQWysHiwCkeG554Th6uNz+eHv5+fq27+/xeHS0grw5+lK6uD4XJSsKREVsS3WfH88JXfiW/bBDhBR4ZhfWKhGsa2Fx6d74Wlu26P7ShWhiGOuxrjR1xievv9gSiTJPFtVjwPfPat6xsv1mmXACfi0flqI7bPDk80SwfHi+1OYrAfm48fIZw5tnnyemsY4/ig9Rf/eS287ZYDEiC+zdqKrxfj0yHAHRYn3Wc/Npx2j/aHoWz/cv3Ju6vhR38jyBc3bj1YHQbZZEw3iW+zxHf6BLiDYnifO9bbCOG4S8tNiVP2dx84sBHiOBXHzRh+MOkK8W1WvBQVn3TlZ3y6BLhDuhDe7WKIl4Ynurj0/f3hRPzSu94LlNkS32adW97c7eya7/QJcEc8c28vfP3+uc6EdydfWpobhnhzafol7wnKDIhvc2Jwvz8M7wvLdjvPigDPWLx96DvDk8o0rvE2YWtp+omFtfDt31uWZnrEtznxstJXPOFq5gR4hk4f7YXvfrzbU+9unjza37gNyjTMNIhvM0y93SLAM/K143M3b/9J1dY0vHhwNfzAE3Noifg2w7Xe7hHgKYsbrX70YDpLzqOI14ZP3F2Fr/7ODzfNEt964s/jK5fdxdBVAjxF8XrvDx86sHG/bW62lqQ/5z5CGiK+k4vhPbe8vjH1elHcXQI8JTG+Pzl5oJGnWHXV0o2vUYSpK6f4br2dX7zTIa58LbZ0Doih/W//fz384g/r3sEoEQI8BSXEd8tWhJ/6tWfJMpnc4vviu5v7I7aiGM8HMcTx8bInh6tGD0+4InbpxkNyzr+/+Tz38x4fm5zq2M9X/Fdr2cv/7q4sl533Ep8r/TkPdN/Vbz91MHTJg7+8Frog1/juJ+6hiHdDLB4Mu07IMbhXhn9cDO4fb7yzGWkzAbcs7nYuLb5R/Jq/fn9/4yQEoyg1vtHm9CqopclnK24HfXEp/VuN6oiPr/x8wV8/oys5vpRLgFsSl5G+tCQ+fztcAYjXumA34kupBLgF8V7fuBGJTd954MDGMYHtxJeSCXALzg4n3xJ2PI8qHouzi77VuJ34UjpnxYbFpeeSr/vu5sx9lqL5iPiCADfuRw9Zet7N2SWb7hFf2CLADYpPujlR4C1Ho9p6+ADlEl/4iAA3yIS3P8eoXOILtxPghjxxtGfj1QhMwWUSX7iTADfkORuvRmYKLov4ws4EuAFbD1dnNPFYPexaeRHEF3anGg04c5/pd1xPHvWtlzvxhb05Czbg9ILDOC5L9nkTX9ifctR04rDNV5OIb71mM1aexBdGI8A1PbEgIpNy3Tw/4gujcwas6VERmZhjlxfxhfE4A9ZkiptcfGqYd0nKg/jC+NSjBhNcPfE68OJdgcSJL0xGQWo46V7W2k4edgxTJr4wOQGuYfGQeNT18GHfgqkSX6jH2a+GRbcf1WYJOk3iC/UJcA1HPEuiNvdQp0d8oRkCXIN41DdvF3RSxBeaI8A1WIKuzypCOsQXmiXAzJQJOA3iC80TYGBP4gvtEGBgV+IL7RHgGq6sDgLkSnyhXQJcw4qf59ouXfMipovEF9onwDUIcH0C3D3iC9MhwDWIR31/tIzfKeIL0yPANQhwfZc+DHSE+MJ0CXANlz4Q4Lreft8x7ALxhekT4BpevyIedb31/npg9sQXpk+Aa7AEXc/K8Prv21cdQ5ohvqRGgGuIAXl9xQQ3KfGlKeJLigS4pjdWRGRSr/zBixfqE19SJcA1mYAn59hRl/iSMgGu6Y1hRDyScnyu/1KX+JI6AW7AuWWT3Lji2xB+ccmbATMZ8SUHAtwAS6mT+dLSnAgzNvElFwLcgLgMLcKTEWHGIb7kRIAb8vxFJ4VJiTCjEF9yI8ANMQXXI8LsRXzJkQA3yBRcjwizE/ElVwLcIFNwfSLMrcSXnAlww0zB9YkwkfiSOwFuWJyCX1h20qhLhMsmvpRAgFsQp2DvlFSfCJdJfCmFALcgPmbxK8OTCPWJcFnEl5IIcEviUrTrwc0Q4TKIL6UR4BY9f9EJpSkinDfxpUQC3LJv/34tnPeuP40Q4TyJL6US4JbF68Ff+M11m7IaIsJ5EV9KJsBTEOP72bdEuCkinAfxpXQCPCUi3CwRTpv4ggBP1VaEXRNuhginSXxhkwBPWYzwU//4oadlNUSE0yK+8BEBnpG/u7C6sUP6yqppuC4RToP4wu0EeIbOvbMaPvNr14WbIMLdJr5wJwGesRjfx3/14cYJSojrEeFuEl/YmQB3RDxBxQ1aTlT1iHC3iC/sToA7JE7A8YQVJ2InrcmJcDeIL+ytOvbzFeueHbV4sAqPzffC2WFM4u8Zz/cvroYfdPQNMX77qYMhZ+IL+xPgRMQQP3Nvb+PXtmIcJ/AX310P83MhPHcsjwmyqxHOOcDiC6OZCyTh9ZX1jY/oxN1VOHG4F55YqMLSoV54+O7xgxxvf7r0YQjn39/8c98Yvg67eMsmsJXVsDF5py4uR0ddnYRzI74wOhNwJmKU5+eq4XQcdpyQrwyDurI2CFfWYnRvj+1uzg7jlUOEo65NwjlOwOIL4zEBZ2Lz8ZbNvpaK72ccmYTZj/jC+OyCZk8xws9nEi27o9shvjAZAWZfIsxuxBcmJ8CMRITZTnyhHgFmZCLMFvGF+gSYsYgw4gvNEGDGJsLlEl9ojgAzEREuj/hCswSYiYlwOcQXmifA1CLC+RNfaIcAU5sI50t8oT0CTCNEOD/iC+0SYBojwvkQX2ifANMoEU6f+MJ0CDCNE+F0iS9MjwDTChFOj/jCdAkwrRHhdIgvTJ8A0yoRToP4wvQJMK0TYYA7CTBTIcIAtxNgpkaEAT4iwEyVCANsEmCmToQBBJgZEWGgdALMzIgwUDIBZqZEGCiVADNzIgyUSIDpBBEGSiPAdIYIAyURYDpFhIFSCDCdI8JACQSYThJhIHcCTGeJMJAzAabTRBjI1VyAjosRjs5mEK8YYYDIBEwScpuEAQSYZOQUYQABJikiDORCgEmOCAM5EGCSJMJA6gSYZIkwkDIBJmkiDKRKgEmeCAMpEmCyIMJAagSYbIgwkBIBJisiDKRCgMmOCAMpEGCyJMJA1wkw2RJhoMsEmKyJMNBVvSqE9wJkTISBrhkM29sbhMEfA2ROhIFuqS70qkF4M0ABRBjoimow+GMvVOFCgEKIMNAFg2rwZm9QVSZgiiLCwKxVw/b2+mtrAkxxRBiYpbVhe3uX/mrhTTuhKZEIAzMxvPT77rC9N+4DHrwQoEAiDMzAa/F/NgI8GKy/HKBQIgxM0/og/DT+uhHg5ScXXrMMTclEGJiK4fLzPz8xvzH03nwU5WAw+IcABRNhoHXrH13yvRngQ3Pr3zMFUzoRBlo1t35u67c3A3zh8YX3TMEgwkBLBoNvLT++cGHr09veDckUDJtEGGhUfOrkLdNvdFuAN6bgKnw5ACIMNOm26Te64/2Al0/Pnws37lGC0okwUFsVzt1o6216O/29h/prz3iTBtgkwsDEYkt7a9/a6f/aMcBxKbq/tvaM68GwSYSBSfR7a89sX3re0tvtH4rPiB5Ua64Hww0iDIxjMBh8+dLjC7u+4VFvr394+fTCubhtOgAbRBgYybCd/+/JP/3eXn/LngGOlp/8029W1cAkDDeIMLCXOPnGdu739+0b4Oid03/6vSq4JgxbRBjYrqrCe+shPLPf5LtlpABH7zyx8PKgv/ZJu6NhkwgDNw3bOOitfXLrjRZGMXKAo7iTa/n0/J+7LgybRBgYhME/fDCM7267nXdThQkde/Xy8bDaPzf8E/4yQOHOLs0NP/ohVQ/+8loAxjQI/3OY0W8uP3nktTCBiQO85dgvVs6E9XBGiCldyhEWYBhDzfBuqR3gLcdeuXIqVOtnqqp6ajAI9wQoUKoRFmDYW9xgNVgLPx3+5lzd8N78M0MLYowH1frTvVCdGoTwiQAFSTHCAgw7Gfx+2LCXq0Hv5Q/mVt987/GFRu8EaiXA2y3+7F8eWe+tHw/V4Phg3XRM/n5y8q7w6HxIxkO//DBA6arecMoN1Xv9td6b7x+4fqHp4G73r7QS0wGcmenXAAAAAElFTkSuQmCC;" vertex="1" parent="1">
          <mxGeometry x="313.24" y="319.24" width="61.52" height="61.52" as="geometry" />
        </mxCell>
        <mxCell id="aCdL_IJ5SIVLyo7josQg-22" style="edgeStyle=orthogonalEdgeStyle;rounded=0;orthogonalLoop=1;jettySize=auto;html=1;exitX=0.5;exitY=1;exitDx=0;exitDy=0;entryX=0.504;entryY=0.011;entryDx=0;entryDy=0;entryPerimeter=0;" edge="1" parent="1" source="aCdL_IJ5SIVLyo7josQg-7">
          <mxGeometry relative="1" as="geometry">
            <mxPoint x="160.21200000000005" y="490.52998" as="targetPoint" />
          </mxGeometry>
        </mxCell>
        <mxCell id="aCdL_IJ5SIVLyo7josQg-24" value="Hot Storage" style="sketch=0;pointerEvents=1;shadow=0;dashed=0;html=1;strokeColor=none;fillColor=#434445;aspect=fixed;labelPosition=center;verticalLabelPosition=bottom;verticalAlign=top;align=center;outlineConnect=0;shape=mxgraph.vvd.ssd;" vertex="1" parent="1">
          <mxGeometry x="135" y="490" width="50" height="35.5" as="geometry" />
        </mxCell>
        <mxCell id="aCdL_IJ5SIVLyo7josQg-25" value="" style="sketch=0;points=[[0.015,0.015,0],[0.985,0.015,0],[0.985,0.985,0],[0.015,0.985,0],[0.25,0,0],[0.5,0,0],[0.75,0,0],[1,0.25,0],[1,0.5,0],[1,0.75,0],[0.75,1,0],[0.5,1,0],[0.25,1,0],[0,0.75,0],[0,0.5,0],[0,0.25,0]];verticalLabelPosition=bottom;html=1;verticalAlign=top;aspect=fixed;align=center;pointerEvents=1;shape=mxgraph.cisco19.rect;prIcon=ups;fillColor=#FAFAFA;strokeColor=#005073;" vertex="1" parent="1">
          <mxGeometry x="319" y="500" width="50" height="50" as="geometry" />
        </mxCell>
        <mxCell id="aCdL_IJ5SIVLyo7josQg-26" style="edgeStyle=orthogonalEdgeStyle;rounded=0;orthogonalLoop=1;jettySize=auto;html=1;exitX=0.75;exitY=1;exitDx=0;exitDy=0;entryX=0.5;entryY=0;entryDx=0;entryDy=0;entryPerimeter=0;" edge="1" parent="1" source="aCdL_IJ5SIVLyo7josQg-7" target="aCdL_IJ5SIVLyo7josQg-25">
          <mxGeometry relative="1" as="geometry" />
        </mxCell>
        <mxCell id="aCdL_IJ5SIVLyo7josQg-28" style="edgeStyle=orthogonalEdgeStyle;rounded=0;orthogonalLoop=1;jettySize=auto;html=1;exitX=0.25;exitY=1;exitDx=0;exitDy=0;entryX=0.5;entryY=0;entryDx=0;entryDy=0;entryPerimeter=0;" edge="1" parent="1" source="aCdL_IJ5SIVLyo7josQg-10" target="aCdL_IJ5SIVLyo7josQg-25">
          <mxGeometry relative="1" as="geometry" />
        </mxCell>
        <mxCell id="aCdL_IJ5SIVLyo7josQg-29" value="&lt;font&gt;- Grafana Agent&lt;/font&gt;&lt;div&gt;&lt;font&gt;- NUT client&lt;/font&gt;&lt;/div&gt;&lt;div&gt;&lt;font&gt;- smartctl&lt;/font&gt;&lt;/div&gt;&lt;div&gt;&lt;font&gt;- WireGuard&lt;/font&gt;&lt;/div&gt;&lt;div&gt;&lt;font&gt;&lt;br&gt;&lt;/font&gt;&lt;/div&gt;&lt;div&gt;&lt;font&gt;Containers:&lt;/font&gt;&lt;/div&gt;&lt;div&gt;&lt;font&gt;- Jellyfin&lt;div&gt;- Nextcloud&lt;/div&gt;&lt;div&gt;- Prometheus WireGuard exporter&lt;/div&gt;&lt;div&gt;- Vaultwarden&lt;/div&gt;&lt;/font&gt;&lt;/div&gt;" style="rounded=0;whiteSpace=wrap;html=1;align=left;fontSize=10;" vertex="1" parent="1">
          <mxGeometry x="112.5" y="290" width="95" height="160" as="geometry" />
        </mxCell>
        <mxCell id="aCdL_IJ5SIVLyo7josQg-32" value="&lt;font&gt;- Grafana Agent&lt;/font&gt;&lt;div&gt;&lt;font&gt;- NUT server&amp;nbsp;&lt;/font&gt;&lt;/div&gt;&lt;div&gt;&lt;font&gt;- NUT client&lt;/font&gt;&lt;/div&gt;&lt;div&gt;&lt;font&gt;- smartctl&lt;/font&gt;&lt;/div&gt;&lt;div&gt;&lt;font&gt;- Backup scripts&lt;/font&gt;&lt;/div&gt;&lt;div&gt;&lt;font&gt;&lt;br&gt;&lt;/font&gt;&lt;/div&gt;&lt;div&gt;&lt;font&gt;Containers:&lt;/font&gt;&lt;/div&gt;&lt;div&gt;&lt;font&gt;- pihole&lt;div&gt;- Prometheus Server&lt;/div&gt;&lt;div&gt;- Prometheus Speedtest exporter&lt;/div&gt;&lt;div&gt;- Prometheus NUT exporter&lt;/div&gt;&lt;/font&gt;&lt;/div&gt;" style="rounded=0;whiteSpace=wrap;html=1;align=left;fontSize=10;" vertex="1" parent="1">
          <mxGeometry x="492.5" y="290" width="95" height="160" as="geometry" />
        </mxCell>
      </root>
    </mxGraphModel>
  </diagram>
</mxfile>
